Coordinates
version=1
nRows=16
nColumns=36
inDegrees=yes

Units are S.I. units (second, meters, Newtons, ...)
If the header above contains a line with 'inDegrees', this indicates whether rotational values are in degrees (yes) or radians (no).

endheader
time	pelvis_tilt	pelvis_list	pelvis_rotation	pelvis_tx	pelvis_ty	pelvis_tz	hip_flexion_r	hip_adduction_r	hip_rotation_r	knee_angle_r	knee_angle_r_beta	ankle_angle_r	subtalar_angle_r	mtp_angle_r	hip_flexion_l	hip_adduction_l	hip_rotation_l	knee_angle_l	knee_angle_l_beta	ankle_angle_l	subtalar_angle_l	mtp_angle_l	lumbar_extension	lumbar_bending	lumbar_rotation	arm_flex_r	arm_add_r	arm_rot_r	elbow_flex_r	pro_sup_r	arm_flex_l	arm_add_l	arm_rot_l	elbow_flex_l	pro_sup_l
      0.00000000	      5.03095607	     -4.56311219	     -6.11103636	      0.58725146	      1.02426421	     -0.01664363	     -1.01915451	      5.51895021	     -6.70567922	      6.98856839	      0.12197353	     -0.20877991	    -16.18209640	     -5.01795494	     -2.07870870	     -3.34984160	     -2.22078525	     10.21970608	      0.17836752	      8.32430045	    -11.47717971	     -5.01795494	    -10.09977170	      5.89812042	     -1.14247649	      7.13266807	     -7.15365295	     22.95054123	     21.71449950	     72.16002918	      0.54964909	     -7.84508043	     18.53852840	     27.23117018	     65.66405804
      0.01666670	      1.42794032	     -3.11177886	     -6.82346567	      0.58805179	      1.01906226	     -0.01796699	      3.68045049	      4.29545927	     -7.07655991	      7.99682395	      0.13957091	      3.64228297	    -13.62470805	     -5.29099959	      2.02747325	     -2.25293855	     -2.94891820	      9.97825548	      0.17415341	      9.48602958	     -9.42301408	     -5.29099959	     -4.37258773	      4.62479194	     -0.80812308	      5.76791905	     -6.33665936	     21.01338257	     20.76277769	     71.45768600	      0.26409810	     -7.40510668	     18.43528628	     26.24534752	     65.93814444
      0.03333330	      0.07224649	     -2.13801857	     -7.35458720	      0.59102977	      1.01719034	     -0.01788012	      4.87198508	      3.43050746	     -8.28087412	      7.32139001	      0.12778236	      4.96824808	    -11.29865503	     -5.48157034	      3.66898821	     -1.51725644	     -4.19974665	     10.05897782	      0.17556228	      9.77649154	     -7.73977268	     -5.48157034	     -1.77892525	      3.31187509	     -0.50185430	      4.78964394	     -5.61029406	     17.90101510	     20.80088811	     70.90900171	      0.13861607	     -7.70483258	     18.22870848	     25.05915948	     66.56510636
      0.05000000	      0.10450902	     -1.72311198	     -7.59591298	      0.59062071	      1.01527621	     -0.02149136	      4.65272523	      2.94783187	     -8.76127562	      7.01146265	      0.12237311	      5.53790189	    -10.27489355	     -6.20155954	      3.46077788	     -0.95032867	     -4.56987053	      9.68861530	      0.16909824	      9.66942935	     -7.05485250	     -6.20155954	     -1.49275539	      2.62639377	      0.40936530	      3.41745266	     -4.96811798	     10.24293135	     22.28828138	     76.51905750	      0.56052777	     -7.95597654	     17.95395932	     24.68729954	     71.74552393
      0.06666670	      0.04190157	     -1.55286159	     -7.66851778	      0.59148806	      1.01758915	     -0.02259837	      4.44963042	      2.69855149	     -8.74444266	      6.59991792	      0.11519030	      5.48359180	     -9.88640001	     -6.33954722	      3.26113510	     -0.66163204	     -4.75140584	      9.20173981	      0.16060066	      9.58730392	     -6.71231431	     -6.33954722	     -1.21370797	      2.30309691	      0.19641907	      3.01952317	     -4.77400806	      9.80791421	     22.70988495	     75.09382876	      0.38095811	     -8.31058187	     17.47797531	     25.12544395	     70.61588080
      0.08333330	      0.14973855	     -1.58216250	     -7.74524119	      0.59134477	      1.01841199	     -0.02488947	      4.28220684	      2.65819140	     -8.59589849	      6.51441414	      0.11369798	      5.45204387	     -9.61889162	     -6.40880965	      3.04469170	     -0.55858602	     -4.74030805	      9.05383520	      0.15801923	      9.41076203	     -6.25060533	     -6.40880965	     -1.29535127	      2.17766801	      0.08915120	      2.90228084	     -4.67487675	      9.59014096	     22.83060607	     74.42635735	      0.49334651	     -8.56539834	     17.20057770	     25.29275717	     70.06433073
      0.10000000	      0.30785712	     -1.71594678	     -7.85869120	      0.59040846	      1.01914003	     -0.02831777	      4.29863470	      2.59059043	     -8.54771219	      6.71171037	      0.11714144	      5.39549806	     -9.45016897	     -6.46429625	      2.83515720	     -0.55880047	     -4.91428303	      8.94273852	      0.15608023	      9.15794926	     -5.81382788	     -6.46429625	     -1.60984294	      2.22031245	     -0.13634720	      2.94912854	     -4.64306842	      9.55718994	     22.95511313	     73.92032901	      0.77045047	     -8.76472278	     17.11724244	     25.45608815	     69.63083818
      0.11666670	      0.47947915	     -1.93513920	     -7.93526590	      0.58875346	      1.01590038	     -0.03037687	      4.42978996	      2.57610770	     -8.33918768	      7.13138022	      0.12446607	      5.28490318	     -9.36218962	     -6.53103178	      2.69858381	     -0.64764143	     -5.02933460	      8.88022591	      0.15498918	      9.18682723	     -5.65117769	     -6.53103178	     -1.99508940	      2.19663582	     -0.44573168	      3.02988143	     -4.62724462	      9.69793559	     23.14215681	     73.32783985	      1.08604397	     -9.06153562	     17.17225220	     25.80541232	     69.11220087
      0.13333330	      0.64643142	     -2.16335341	     -8.01696224	      0.58979653	      1.01720756	     -0.03657066	      4.88647240	      2.35318201	     -8.14820048	      8.12395111	      0.14178970	      5.09917870	     -9.36494325	     -6.54035802	      2.56759222	     -0.67311900	     -5.26618877	      8.97272321	      0.15660356	      9.17269007	     -5.48950137	     -6.54035802	     -2.39908895	      2.35824419	     -0.83818059	      3.19562449	     -4.72419331	      9.81329426	     23.22765742	     73.33694303	      1.38773180	     -9.22530752	     17.32516060	     25.85550171	     69.08349377
      0.15000000	      0.84308940	     -2.40506704	     -8.25992041	      0.58683464	      1.01417406	     -0.03896747	      5.67171575	      2.09233594	     -8.26132147	      9.89817163	      0.17275568	      5.38460570	     -9.18861252	     -6.69767340	      2.43537986	     -0.78317333	     -5.76630601	      9.14130263	      0.15954583	      9.47065210	     -5.23425950	     -6.69767340	     -2.99349412	      2.45008782	     -1.22075113	      3.30537552	     -4.81459679	      9.99568715	     23.82754827	     71.93452467	      1.50110729	     -9.63634810	     17.57344401	     26.51862925	     67.96205263
      0.16666670	      0.84809122	     -2.63176589	     -8.52490346	      0.58561529	      1.01138926	     -0.04387563	      7.00345721	      1.69602552	     -8.68063447	     12.36868736	      0.21587432	      5.92796269	     -8.95963792	     -6.82343600	      2.48181019	     -0.83808992	     -6.27549308	      9.20739204	      0.16069931	      9.81761542	     -5.15121756	     -6.82343600	     -3.38894687	      2.59218460	     -1.62342167	      3.42992057	     -4.95865793	     10.23375529	     24.29628106	     70.80700465	      1.58256410	    -10.01945032	     17.89351921	     26.86674885	     67.04819971
      0.18333330	      0.55322082	     -2.83996203	     -8.82497759	      0.58320784	      1.01056233	     -0.04796468	      8.98484648	      1.22107353	     -9.27879940	     15.41193843	      0.26898907	      6.97565011	     -8.11753265	     -6.92987144	      2.93970593	     -0.93850706	     -6.88511471	      9.50418244	      0.16587928	     10.39625556	     -4.80947022	     -6.92987144	     -3.41699791	      2.76625402	     -1.91362756	      3.58294220	     -5.23952523	     11.19728605	     24.29842589	     70.48939455	      1.86512258	    -10.40675009	     18.94787281	     26.58557652	     66.50281208
      0.20000000	      0.60375063	     -3.06483196	     -9.13248432	      0.58133524	      1.01328907	     -0.05226587	     10.59455508	      0.66149261	     -9.60432753	     18.62187482	      0.32501303	      7.75920075	     -7.89964121	     -6.93970294	      2.90845130	     -0.99879469	     -7.42656507	      9.43649177	      0.16469785	     10.52359320	     -4.78881663	     -6.93970294	     -4.03989194	      2.92351551	     -2.34739494	      3.75315459	     -5.37485691	     11.18903210	     24.75720014	     70.59825916	      1.93376970	    -10.81945331	     19.04262825	     26.67480171	     66.53572783
      0.21666670	      0.11086321	     -3.22714249	     -9.52836415	      0.57822258	      1.01285345	     -0.05711334	     13.11813980	     -0.30712490	    -10.85361927	     22.70056067	      0.39619953	      9.48389149	     -5.83820020	     -7.01727242	      3.61754999	     -1.05020343	     -8.15176911	      9.67886895	      0.16892813	     10.86050556	     -4.53469078	     -7.01727242	     -3.94776010	      3.20381089	     -2.54580076	      3.76151247	     -5.69604504	     11.12799041	     25.28754252	     70.12037886	      1.81782546	    -11.10220890	     18.99269950	     26.82283834	     66.02558457
      0.23333330	     -0.09118408	     -3.39240204	     -9.96861969	      0.57853658	      1.01368330	     -0.06167938	     15.13091177	     -1.41184465	    -11.98703780	     26.96235460	      0.47058186	     10.60977658	     -5.25857196	     -7.08192584	      4.01461558	     -1.06769841	     -8.90294067	     10.00309452	      0.17458693	     10.89528647	     -4.41374421	     -7.08192584	     -4.24439147	      3.48788335	     -2.80406974	      3.83687277	     -6.00423554	     11.05791833	     25.75271610	     69.97838853	      1.65948845	    -11.30346119	     18.70427124	     26.62031255	     65.75303162
      0.25000000	     -0.26768527	     -3.61485842	    -10.44307690	      0.57771493	      1.01799218	     -0.06363784	     16.86299657	     -2.55111116	    -12.84424501	     31.42805616	      0.54852306	     11.58375161	     -5.55258091	     -7.09452652	      4.32087820	     -1.17191189	     -9.80221127	     10.42556462	      0.18196043	     10.78544220	     -4.36497041	     -7.09452652	     -4.46537475	      3.78488874	     -2.92369560	      3.81005310	     -6.28930377	     10.93941088	     26.15437193	     70.37300907	      1.40285280	    -11.55564235	     18.34915418	     26.45640244	     65.92358742
